<svg xmlns="http://www.w3.org/2000/svg" width="11.252" height="11.019" viewBox="0 0 11.252 11.019"><defs><style>.a{fill:#010002;}</style></defs><g transform="translate(0 13.557) rotate(-90)"><g transform="translate(2.538 0)"><g transform="translate(0 0)"><path class="a" d="M4.24,5.657,8.108,1.284A.734.734,0,1,0,7.07.247L2.752,5.127a.763.763,0,0,0,0,1.058L7.07,11.069a.734.734,0,1,0,1.038-1.038Z" transform="translate(-2.538 -0.031)"/><path class="a" d="M118.212,5.627l3.865-4.373A.733.733,0,1,0,121.042.215L116.723,5.1a.727.727,0,0,0-.213.528.736.736,0,0,0,.213.53l4.317,4.883A.734.734,0,0,0,122.078,10Z" transform="translate(-111.276 0)"/></g></g></g></svg>