<svg xmlns="http://www.w3.org/2000/svg" xmlns:xlink="http://www.w3.org/1999/xlink" width="155.34" height="122.116" viewBox="0 0 155.34 122.116"><defs><style>.a,.h{fill:#d12731;}.a{opacity:0.1;}.b{fill:#e0e0e0;}.c{opacity:0.5;}.d{fill:url(#a);}.e{fill:#fafafa;}.f{fill:url(#b);}.g{fill:url(#c);}.i{fill:url(#d);}.j{fill:#fff;}.k{fill:url(#f);}</style><linearGradient id="a" x1="0.509" y1="0.997" x2="0.509" y2="-0.003" gradientUnits="objectBoundingBox"><stop offset="0" stop-color="gray" stop-opacity="0.251"/><stop offset="0.54" stop-color="gray" stop-opacity="0.122"/><stop offset="1" stop-color="gray" stop-opacity="0.102"/></linearGradient><linearGradient id="b" x1="0.813" y1="0.841" x2="0.813" y2="-0.159" xlink:href="#a"/><linearGradient id="c" x1="1.78" y1="0.849" x2="1.78" y2="-0.151" xlink:href="#a"/><linearGradient id="d" x1="0.5" y1="1" x2="0.5" y2="0" xlink:href="#a"/><linearGradient id="f" x1="0.5" y1="0.999" x2="0.5" y2="-0.001" xlink:href="#a"/></defs><path class="a" d="M185.48,47.267c-9.959-.345-19.443-3.55-28.5-7.057s-18.028-7.392-27.748-9.25c-6.252-1.2-13.4-1.364-18.438,1.977-4.848,3.221-6.415,8.767-7.257,13.918-.634,3.875-1.006,7.954.729,11.58,1.206,2.519,3.345,4.636,4.825,7.049,5.15,8.394,1.509,18.746-4.07,26.942-2.616,3.846-5.655,7.517-7.675,11.606s-2.954,8.782-1.186,12.958c1.751,4.142,5.926,7.247,10.448,9.433,9.185,4.441,20,5.711,30.56,6.431,23.362,1.594,46.848.9,70.272.213,8.669-.256,17.375-.515,25.9-1.852,4.736-.742,9.625-1.919,13.064-4.763a10.884,10.884,0,0,0,2.52-14.248c-4.905-7.592-18.465-9.477-21.9-17.624-1.886-4.486.051-9.48,2.794-13.641,5.884-8.922,15.746-16.75,16.264-26.948.357-7-4.384-14.02-11.714-17.335-7.683-3.473-18.338-3.037-24,2.714C204.531,45.293,194.274,47.571,185.48,47.267Z" transform="translate(-95.226 -30.178)"/><g transform="translate(29.869 24.611)"><rect class="b" width="61.383" height="84.812" transform="translate(0 14.581) rotate(-12.11)"/><g class="c" transform="translate(1.316 3.323)"><rect class="d" width="59.309" height="81.945" transform="translate(0 12.442) rotate(-12.11)"/></g><rect class="e" width="57.799" height="80.135" transform="translate(2.18 16.196) rotate(-12.11)"/><rect class="f" width="28.673" height="6.946" transform="translate(15.764 9.729) rotate(-12.11)"/><path class="g" d="M441.639,91.361a4.1,4.1,0,1,0,4.776,3.172A4.056,4.056,0,0,0,441.639,91.361ZM443,97.7a2.368,2.368,0,1,1,1.764-2.809A2.34,2.34,0,0,1,443,97.7Z" transform="translate(-413.282 -91.273)"/><path class="h" d="M0,0H28.069V6.64H0Z" transform="translate(15.996 9.374) rotate(-12.11)"/><path class="h" d="M441.956,91.36a3.923,3.923,0,1,0,4.659,3.013,3.923,3.923,0,0,0-4.659-3.013Zm1.3,6.054a2.264,2.264,0,1,1,1.739-2.688,2.264,2.264,0,0,1-1.739,2.688Z" transform="translate(-413.599 -91.272)"/><rect class="b" width="61.383" height="84.812" transform="translate(26.514 11.971)"/><g class="c" transform="translate(27.552 13.405)"><rect class="i" width="59.309" height="81.945"/></g><rect class="j" width="57.799" height="80.134" transform="translate(28.306 14.009)"/><rect class="i" width="28.673" height="6.946" transform="translate(42.945 10.534)"/><path class="k" d="M642.329,118a4.105,4.105,0,1,0,4.009,4.1A4.057,4.057,0,0,0,642.329,118Zm0,6.472a2.368,2.368,0,1,1,2.312-2.368,2.34,2.34,0,0,1-2.312,2.357Z" transform="translate(-585.047 -114.246)"/><rect class="h" width="28.069" height="6.639" transform="translate(43.247 10.236)"/><path class="h" d="M642.853,118a3.923,3.923,0,1,0,3.923,3.923A3.923,3.923,0,0,0,642.853,118Zm0,6.187a2.266,2.266,0,1,0,0-.007Z" transform="translate(-585.571 -114.246)"/></g></svg>