<svg xmlns="http://www.w3.org/2000/svg" width="191.588" height="152.891" viewBox="0 0 191.588 152.891"><defs><style>.a{fill:#d1e2fa;}.b{fill:#faded6;}.c{fill:#d0202a;}.d{fill:#246a84;}.e{fill:#f91212;}.f{fill:#2a3952;}.g{fill:#a31422;}</style></defs><g transform="translate(-0.032)"><g transform="translate(0.032 0)"><circle class="a" cx="75.593" cy="75.593" r="75.593" transform="translate(40.402)"/><path class="b" d="M542.993,103.112s1.818-.853.817-11.611c.084-11.417-.767-17.637,8.691-18.831,8.35.341,11.077,4.43,11.246,6.732l.171,2.3s-.825,11.021-.711,11.36.227,5.225.227,5.225.171,3.862-.51,5a8.875,8.875,0,0,1-2.443,2.953c-.739.341-1.7.853-1.7.853s1.533,4.934.867,7.44C559.19,116.243,542.425,114.762,542.993,103.112Z" transform="translate(-434.774 -58.188)"/><path class="c" d="M418,331.81a74.854,74.854,0,0,0,27.955,7.3q-2.409-48.527-4.783-97.117l-.038-.763a9.06,9.06,0,0,1-1.214-4.546,13.152,13.152,0,0,0-.3-3.94s-19.863,13.638-20.318,14.4S418.909,329.99,418,331.81Z" transform="translate(-334.703 -186.357)"/><path class="b" d="M25.9,596.137s-.032.311-1.7,1.818a11.2,11.2,0,0,1-3.637,2.445,19.474,19.474,0,0,0-3.864,3.011c-.867,1.17-1.345,1.626-3.388,4.354-1.469,1.959-5.227,3.448-2.918-.092a28.1,28.1,0,0,1,2.324-2.971q.841-.97,1.73-1.9c.315-.331.636-.658.959-.979a6.663,6.663,0,0,0,1.014-1.01c-.813.088-1.612,1.086-2.2,1.594-1.036.887-2.033,1.814-3.017,2.742-.927.865-1.766,1.822-2.72,2.657-.47.409-1.748,1.65-2.463,1.174-1.024-.684,3.693-7.617,7.33-8.866a15.517,15.517,0,0,0-3.163,1.831,21.082,21.082,0,0,0-3.587,2.824c-.751.755-1.881,2.471-3.119,1.582a1.617,1.617,0,0,1-.361-2.26c.911-.911,1.847-1.794,2.79-2.673a39,39,0,0,1,3.318-2.888,2.013,2.013,0,0,1,.582-.361c-.08.47-1.062.8-1.4,1.012a41.913,41.913,0,0,1-4.8,2.832,8.411,8.411,0,0,1-2.429.9,1,1,0,0,1-1.03-1.447A4.383,4.383,0,0,1,2.363,599.8c1.746-.729,3.6-1.056,5.271-1.981a12.524,12.524,0,0,0,4.064-3.506c-.658.58-1.333,1.14-2.013,1.692a14.485,14.485,0,0,1-2.912,2.134c-.094.042-.253.146-.363.1-.51-.227-3.41-1.648,4.661-8.468,0,0,4.261-3.92,11.36-2.216C31.356,589.692,25.9,596.137,25.9,596.137Z" transform="translate(-0.032 -470.117)"/><path class="c" d="M178.56,328.251S172.5,361.89,152.8,366.738s-40.313,3.031-40.313,3.031-6.668-7.274-5.457-13.032,33.339-7.882,36.67-13.95,26.98-40.608,26.98-40.608S181.894,313.7,178.56,328.251Z" transform="translate(-85.587 -241.958)"/><path class="d" d="M641.449,114.028c5.13-.3,56.949-6.728,56.949-6.728s1.238,15.545-.088,15.445-56.862-6.423-56.862-6.423c-.747-.265-1.184-.743-1.128-1.236C640.393,114.415,641.351,114.06,641.449,114.028Z" transform="translate(-512.713 -85.916)"/><path class="d" d="M913.83,113.668c0,4.372,1.931,7.918,4.313,7.918s4.313-3.545,4.313-7.918-1.931-7.918-4.313-7.918a2.458,2.458,0,0,0-.869.159C915.309,106.649,913.83,109.841,913.83,113.668Z" transform="translate(-731.718 -84.675)"/><ellipse class="e" cx="3.284" cy="6.27" rx="3.284" ry="6.27" transform="translate(183.128 22.643)"/><path class="b" d="M779.407,120.186s.307-2.461,1.429-9.185c1.375-8.239-2.324-10.525-9.8-3.767s2.908,15.744,2.908,15.744Z" transform="translate(-615.216 -82.687)"/><path class="c" d="M708.91,228.515s11.258,21.561,25.461,21.217c31.217-.757.6-63.65-1.517-68.5-.3.909-4.384-1.744-9.548-.227s2.936,32.752,1.138,30.691c-13.883-15.943-15-15.457-15-15.457Z" transform="translate(-567.637 -144.55)"/><path class="f" d="M542.78,237.445s2.5,7.047,15,7.5a16.334,16.334,0,0,0-.385-7.342l1.919-2.206s7.671,1.136,8.011,15.8,4.412,86.9,4.412,86.9a72.058,72.058,0,0,1-19.062,3.242c-1.877.04-3.679.052-5.425,0Q544.452,289.2,541.65,237Z" transform="translate(-433.71 -188.487)"/><path class="g" d="M538.264,279.6l-4.054-.448,4.783,97.117q.753.044,1.533.078c.719.03,1.427.048,2.116.058Z" transform="translate(-427.753 -223.518)"/><path class="g" d="M656.652,368.215c-.331.116-.674.2-1.026.3-.644.2-1.264.367-1.859.508L647.68,273l4.279.263Z" transform="translate(-518.609 -218.593)"/><path class="c" d="M613.1,222.09s23.945,4.849,24.248,13.335,3.908,87.064,3.908,87.064c-1.594.729-3.316,1.616-5.686,2.569a61.634,61.634,0,0,1-6.607,2.391s-4.506-91.307-4.649-93.244C624.055,230.7,622.421,227.925,613.1,222.09Z" transform="translate(-490.921 -177.829)"/><path class="e" d="M529.108,225.13l2.35,11.214s-3.278.213-4.054-.448c-1.166-1-2.047-6.361-1.554-9.249C526.085,225.273,529.108,225.13,529.108,225.13Z" transform="translate(-420.947 -180.264)"/><path class="e" d="M623.75,236.629c-2.081-8.711-5.9-8.424-7.794-9-1.692-.514-4.783-.8-2.274,1.252s6.023,7.493,6.023,7.493" transform="translate(-490.63 -181.965)"/><path class="f" d="M546.4,110.2a21,21,0,0,0,2.1.114c.227-.058-1.421-3.749-.114-3.862s2.214.341,1.993,3.125.171,9.4,1.279,10.935,2.453,6.21,9.546,5.247a3.379,3.379,0,0,0,2.515-1.3c2.577-2.591,3.7-1.594,2.168-11.872-.454-.512-4.034-3.637-8.749,2.328-1.7,1.535-4.829,1.7-4.942-1.25s-.227-9.542-.227-9.542,2.1-4.887.512-6.363-5-2.045-5-2.045-.612.572-.927,5.447C546.418,103.221,546.38,106.818,546.4,110.2Z" transform="translate(-437.508 -76.644)"/><path class="c" d="M547.456,81.66s-.1-6.459,3.89-8.025c4.231-1.662,9.7-1.945,14.484,2.13a9.272,9.272,0,0,1,1.594,2.806c.092.3.281,2.688.281,2.688a58.082,58.082,0,0,1-9.9,1.152c-1.283.036-2.517.026-3.695-.018a55.024,55.024,0,0,1-6.662-.664" transform="translate(-438.354 -58.044)"/><path class="g" d="M607.279,115.25l-17.809-.169a70.742,70.742,0,0,0,11.888-1.066c5.666-.042,6.517-1.064,7.029-.383S607.279,115.25,607.279,115.25Z" transform="translate(-472 -90.798)"/></g></g></svg>