<svg xmlns="http://www.w3.org/2000/svg" width="23.182" height="23.182" viewBox="0 0 23.182 23.182"><defs><style>.a{fill:#4267b2;}.b{fill:#fff;}</style></defs><path class="a" d="M21.9,0H1.278A1.279,1.279,0,0,0,0,1.28V21.9a1.279,1.279,0,0,0,1.28,1.279H21.9a1.279,1.279,0,0,0,1.28-1.279h0V1.279A1.279,1.279,0,0,0,21.9,0Zm0,0" transform="translate(0 0)"/><path class="b" d="M213.633,97.005V88.04h3.022l.453-3.509h-3.475V82.3c0-1.014.281-1.7,1.735-1.7h1.842v-3.13a24.764,24.764,0,0,0-2.7-.138c-2.671,0-4.5,1.63-4.5,4.625v2.582H207V88.04h3.011v8.965Zm0,0" transform="translate(-197.628 -73.823)"/></svg>