<svg xmlns="http://www.w3.org/2000/svg" width="23.879" height="23.879" viewBox="0 0 23.879 23.879"><path d="M20.38,3.5a11.937,11.937,0,1,0,0,16.881A11.93,11.93,0,0,0,20.38,3.5Zm-.5,15.18a11.965,11.965,0,0,0-1.783-1.32,19.305,19.305,0,0,0,.72-4.658h3.509A10.321,10.321,0,0,1,19.881,18.678ZM1.551,12.7H5.061a19.305,19.305,0,0,0,.72,4.658A11.965,11.965,0,0,0,4,18.678,10.321,10.321,0,0,1,1.551,12.7ZM4,5.2A11.965,11.965,0,0,0,5.781,6.52a19.305,19.305,0,0,0-.72,4.658H1.551A10.321,10.321,0,0,1,4,5.2Zm7.181,1.478a10.335,10.335,0,0,1-3.546-.9c.645-1.661,1.834-3.653,3.546-4.146Zm0,1.524v2.977h-4.6A17.923,17.923,0,0,1,7.16,7.235,11.857,11.857,0,0,0,11.179,8.2Zm0,4.5v2.977a11.857,11.857,0,0,0-4.019.967A17.923,17.923,0,0,1,6.583,12.7Zm0,4.5v5.045c-1.712-.494-2.9-2.485-3.546-4.146A10.335,10.335,0,0,1,11.179,17.2Zm1.521,0a10.335,10.335,0,0,1,3.546.9c-.645,1.661-1.834,3.653-3.546,4.146Zm0-1.524V12.7h4.6a17.923,17.923,0,0,1-.577,3.944,11.857,11.857,0,0,0-4.019-.967Zm0-4.5V8.2a11.857,11.857,0,0,0,4.019-.967,17.923,17.923,0,0,1,.577,3.944Zm0-4.5V1.633c1.712.494,2.9,2.486,3.546,4.146A10.336,10.336,0,0,1,12.7,6.678Zm3.417-4.285a10.37,10.37,0,0,1,2.7,1.722,10.455,10.455,0,0,1-1.224.929,11.453,11.453,0,0,0-1.473-2.651ZM6.289,5.043a10.459,10.459,0,0,1-1.224-.929,10.37,10.37,0,0,1,2.7-1.722A11.457,11.457,0,0,0,6.289,5.043Zm0,13.792a11.454,11.454,0,0,0,1.473,2.651,10.37,10.37,0,0,1-2.7-1.722A10.455,10.455,0,0,1,6.289,18.835Zm11.3,0a10.46,10.46,0,0,1,1.224.929,10.37,10.37,0,0,1-2.7,1.722,11.452,11.452,0,0,0,1.473-2.651Zm1.228-7.657A19.3,19.3,0,0,0,18.1,6.52,11.968,11.968,0,0,0,19.882,5.2a10.321,10.321,0,0,1,2.446,5.978Z" transform="translate(0 0)"/></svg>