<svg xmlns="http://www.w3.org/2000/svg" xmlns:xlink="http://www.w3.org/1999/xlink" width="23.879" height="23.879" viewBox="0 0 23.879 23.879"><defs><style>.a{fill:url(#a);}.b{fill:url(#b);}.c{fill:url(#c);}.d{fill:url(#d);}.e{fill:url(#e);}.f{fill:url(#f);}.g{fill:url(#g);}.h{fill:url(#h);}.i{fill:#fff;}</style><radialGradient id="a" cx="0.205" cy="0.874" r="1.103" gradientTransform="translate(0)" gradientUnits="objectBoundingBox"><stop offset="0" stop-color="#fae100"/><stop offset="0.054" stop-color="#fadc04"/><stop offset="0.117" stop-color="#fbce0e"/><stop offset="0.183" stop-color="#fcb720"/><stop offset="0.251" stop-color="#fe9838"/><stop offset="0.305" stop-color="#ff7950"/><stop offset="0.492" stop-color="#ff1c74"/><stop offset="1" stop-color="#6c1cd1"/></radialGradient><linearGradient id="b" x1="0.369" y1="0.426" x2="-1.54" y2="-0.648" gradientUnits="objectBoundingBox"><stop offset="0" stop-color="#a1b5d8" stop-opacity="0"/><stop offset="0.309" stop-color="#90a2bd" stop-opacity="0.31"/><stop offset="0.755" stop-color="#7c8b9c" stop-opacity="0.757"/><stop offset="1" stop-color="#748290"/></linearGradient><linearGradient id="c" x1="0.5" y1="0.413" x2="0.5" y2="1.193" gradientUnits="objectBoundingBox"><stop offset="0" stop-color="#fae100" stop-opacity="0"/><stop offset="0.307" stop-color="#fca800" stop-opacity="0.306"/><stop offset="0.627" stop-color="#fe7300" stop-opacity="0.627"/><stop offset="0.868" stop-color="#ff5200" stop-opacity="0.867"/><stop offset="1" stop-color="#ff4500"/></linearGradient><linearGradient id="d" x1="0.316" y1="0.311" x2="0.012" y2="0.005" gradientUnits="objectBoundingBox"><stop offset="0" stop-color="#833ab4" stop-opacity="0"/><stop offset="1" stop-color="#833ab4"/></linearGradient><linearGradient id="e" x1="0.582" y1="0.887" x2="0.418" y2="0.113" xlink:href="#d"/><linearGradient id="f" x1="0.605" y1="0.605" x2="-0.16" y2="-0.16" xlink:href="#d"/><linearGradient id="g" x1="0.376" y1="0.332" x2="-0.072" y2="-0.063" xlink:href="#d"/><linearGradient id="h" x1="0.816" y1="0.182" x2="0.172" y2="0.835" gradientUnits="objectBoundingBox"><stop offset="0" stop-color="#833ab4"/><stop offset="0.092" stop-color="#9c3495"/><stop offset="0.293" stop-color="#dc2546"/><stop offset="0.392" stop-color="#fd1d1d"/><stop offset="0.559" stop-color="#fc6831"/><stop offset="0.689" stop-color="#fc9b40"/><stop offset="0.752" stop-color="#fcaf45"/><stop offset="0.781" stop-color="#fdb750"/><stop offset="0.866" stop-color="#fecb6a"/><stop offset="0.942" stop-color="#ffd87a"/><stop offset="1" stop-color="#ffdc80"/></linearGradient></defs><path class="a" d="M23.47,4.271A4.348,4.348,0,0,0,19.608.409a72.124,72.124,0,0,0-15.337,0A4.348,4.348,0,0,0,.408,4.271a72.124,72.124,0,0,0,0,15.337A4.348,4.348,0,0,0,4.271,23.47a72.125,72.125,0,0,0,15.337,0,4.348,4.348,0,0,0,3.862-3.862,72.123,72.123,0,0,0,0-15.337Zm0,0" transform="translate(0.001 0)"/><path class="b" d="M49.661,32.624A3.858,3.858,0,0,0,46.233,29.2a64.026,64.026,0,0,0-13.61,0A3.859,3.859,0,0,0,29.2,32.624a64.024,64.024,0,0,0,0,13.609,3.858,3.858,0,0,0,3.427,3.427,64,64,0,0,0,13.609,0,3.858,3.858,0,0,0,3.427-3.427,64,64,0,0,0,0-13.609Zm0,0" transform="translate(-27.489 -27.49)"/><path class="c" d="M7.672,409.8q.025.248.051.5a4.348,4.348,0,0,0,3.862,3.862,72.123,72.123,0,0,0,15.337,0,4.348,4.348,0,0,0,3.862-3.862q.027-.248.051-.5Zm0,0" transform="translate(-7.314 -390.692)"/><path class="d" d="M114.125,112.387a72.188,72.188,0,0,0,.406-8.241l-5.458-5.458a3.909,3.909,0,0,0-2.848-1.306c-2.407-.087-4.821-.082-7.228,0a3.863,3.863,0,0,0-3.756,3.388c-.063.349-.1.7-.151,1.053v5.79c.028.188.068.374.081.563a4.209,4.209,0,0,0,1.364,2.926l5.554,5.554a72.19,72.19,0,0,0,8.174-.407,4.348,4.348,0,0,0,3.862-3.862Zm0,0" transform="translate(-90.655 -92.779)"/><path class="e" d="M143.836,140.462a4.348,4.348,0,0,1-3.862,3.862,72.232,72.232,0,0,1-8.174.407l-5.546-5.546a3.889,3.889,0,0,0,2.453.942c2.407.09,4.822.088,7.228,0a3.868,3.868,0,0,0,3.82-3.867c.073-2.311.073-4.628,0-6.94a4.029,4.029,0,0,0-.968-2.556l5.455,5.455a72.315,72.315,0,0,1-.406,8.241Zm0,0" transform="translate(-120.365 -120.854)"/><path class="f" d="M180.635,175.232a3.824,3.824,0,1,0-5.4,5.4l8.849,8.849q.7-.061,1.4-.136a4.348,4.348,0,0,0,3.862-3.862q.075-.7.136-1.4Zm0,0" transform="translate(-165.877 -165.878)"/><path class="g" d="M332.041,158.223l-7.122-7.122a.909.909,0,1,0-1.274,1.274l8.268,8.268Q332,159.434,332.041,158.223Zm0,0" transform="translate(-308.208 -143.712)"/><path class="h" d="M95.09,101.821c.05-.351.088-.7.151-1.053A3.863,3.863,0,0,1,99,97.381c2.407-.083,4.822-.087,7.229,0a3.868,3.868,0,0,1,3.82,3.866q.108,3.467,0,6.94a3.868,3.868,0,0,1-3.82,3.866c-2.407.087-4.822.089-7.229,0a3.935,3.935,0,0,1-3.826-3.877c-.013-.189-.053-.375-.081-.563v-5.79Zm7.507,8.941c1.1,0,2.2.033,3.3-.008a2.687,2.687,0,0,0,2.826-2.816q.075-3.221,0-6.444a2.671,2.671,0,0,0-2.826-2.813q-3.282-.069-6.567,0a2.655,2.655,0,0,0-2.821,2.772q-.089,3.261,0,6.526a2.672,2.672,0,0,0,2.821,2.775c1.086.04,2.175.008,3.263.008Zm0,0" transform="translate(-90.655 -92.778)"/><g transform="translate(4.435 4.539)"><path class="i" d="M95.09,101.821c.05-.351.088-.7.151-1.053A3.863,3.863,0,0,1,99,97.381c2.407-.083,4.822-.087,7.229,0a3.868,3.868,0,0,1,3.82,3.866q.108,3.467,0,6.94a3.868,3.868,0,0,1-3.82,3.866c-2.407.087-4.822.089-7.229,0a3.935,3.935,0,0,1-3.826-3.877c-.013-.189-.053-.375-.081-.563v-5.79Zm7.507,8.941c1.1,0,2.2.033,3.3-.008a2.687,2.687,0,0,0,2.826-2.816q.075-3.221,0-6.444a2.671,2.671,0,0,0-2.826-2.813q-3.282-.069-6.567,0a2.655,2.655,0,0,0-2.821,2.772q-.089,3.261,0,6.526a2.672,2.672,0,0,0,2.821,2.775c1.086.04,2.175.008,3.263.008Zm0,0" transform="translate(-95.09 -97.317)"/><path class="i" d="M177.817,174a3.825,3.825,0,1,0,3.825,3.825A3.825,3.825,0,0,0,177.817,174Zm0,6.333a2.508,2.508,0,1,1,2.508-2.508A2.508,2.508,0,0,1,177.817,180.329Zm0,0" transform="translate(-170.312 -170.42)"/><path class="i" d="M325.105,151.652a.91.91,0,1,1-.91-.91A.91.91,0,0,1,325.105,151.652Zm0,0" transform="translate(-312.643 -148.251)"/></g></svg>