<svg xmlns="http://www.w3.org/2000/svg" width="14" height="12.007" viewBox="0 0 14 12.007"><g transform="translate(0 -31.842)"><g transform="translate(0 31.842)"><path d="M13.158,36.862a1,1,0,0,0-.173-.013H3.108l.215-.1a2,2,0,0,0,.566-.4l2.77-2.77A1.037,1.037,0,0,0,6.8,32.252a1,1,0,0,0-1.5-.13L.294,37.13a1,1,0,0,0,0,1.417h0L5.3,43.556a1,1,0,0,0,1.5-.1,1.037,1.037,0,0,0-.145-1.327L3.895,39.354a2,2,0,0,0-.5-.366l-.3-.135H12.93a1.037,1.037,0,0,0,1.057-.841A1,1,0,0,0,13.158,36.862Z" transform="translate(0 -31.842)"/></g></g></svg>