<svg xmlns="http://www.w3.org/2000/svg" width="19" height="19.629" viewBox="0 0 19 19.629"><defs><style>.a{fill:#fff;}</style></defs><g transform="translate(23.564 19.629) rotate(180)"><g transform="translate(4.564)"><g transform="translate(0)"><path class="a" d="M117.724,9.815l7.73-7.73a.62.62,0,0,0,0-.9L124.471.2a.618.618,0,0,0-.9,0L114.4,9.362a.619.619,0,0,0,0,.9l9.166,9.165a.619.619,0,0,0,.9,0l.984-.983a.619.619,0,0,0,0-.9Z" transform="translate(-106.651)"/><path class="a" d="M8.085,9.815l7.73-7.73a.619.619,0,0,0,0-.9L14.831.2a.618.618,0,0,0-.9,0L4.761,9.362a.619.619,0,0,0,0,.9l9.166,9.165a.619.619,0,0,0,.9,0l.983-.983a.619.619,0,0,0,0-.9Z" transform="translate(-4.564)"/></g></g></g></svg>