<svg xmlns="http://www.w3.org/2000/svg" width="23.247" height="23.247" viewBox="0 0 23.247 23.247"><defs><style>.a{fill:rgba(0,0,0,0);}.b{fill:rgba(0,0,0,0.5);}</style></defs><rect class="a" width="23.247" height="23.247"/><path class="b" d="M10.074,19.9H2.7A2.707,2.707,0,0,1,0,17.2V2.7A2.707,2.707,0,0,1,2.7,0H12.778a2.7,2.7,0,0,1,2.7,2.7V14.5a.735.735,0,0,1-.216.522L10.6,19.688A.743.743,0,0,1,10.074,19.9ZM2.7,1.474A1.229,1.229,0,0,0,1.476,2.7V17.2A1.229,1.229,0,0,0,2.7,18.426l6.633,0v-2.7a2.707,2.707,0,0,1,2.7-2.7h1.966V2.7a1.229,1.229,0,0,0-1.228-1.228ZM12.04,14.5a1.229,1.229,0,0,0-1.228,1.228v1.66L13.7,14.5Z" transform="translate(4.16 1.672)"/></svg>