<svg xmlns="http://www.w3.org/2000/svg" width="22.657" height="22.657" viewBox="0 0 22.657 22.657"><g transform="translate(8.024 8.024)"><path d="M139.3,136a3.3,3.3,0,1,0,3.3,3.3A3.308,3.308,0,0,0,139.3,136Zm0,4.72a1.416,1.416,0,1,1,1.416-1.416A1.418,1.418,0,0,1,139.3,140.72Z" transform="translate(-136 -136)"/></g><path d="M21.713,10.384H19.769a8.508,8.508,0,0,0-7.5-7.5V.944a.944.944,0,0,0-1.888,0V2.888a8.508,8.508,0,0,0-7.5,7.5H.944a.944.944,0,0,0,0,1.888H2.888a8.508,8.508,0,0,0,7.5,7.5v1.944a.944.944,0,0,0,1.888,0V19.769a8.508,8.508,0,0,0,7.5-7.5h1.944a.944.944,0,0,0,0-1.888ZM11.328,17.936a6.608,6.608,0,1,1,6.608-6.608A6.615,6.615,0,0,1,11.328,17.936Z"/></svg>