<svg xmlns="http://www.w3.org/2000/svg" width="78.79" height="78.79" viewBox="0 0 78.79 78.79"><defs><style>.a,.b{fill:#43b05c;}.a{opacity:0.6;}</style></defs><path class="a" d="M39.4,78.79A39.211,39.211,0,0,1,17.37,72.062,39.514,39.514,0,0,1,3.1,54.729,39.341,39.341,0,0,1,6.728,17.37,39.514,39.514,0,0,1,24.062,3.1,39.34,39.34,0,0,1,61.421,6.728,39.514,39.514,0,0,1,75.694,24.062a39.34,39.34,0,0,1-3.632,37.359A39.514,39.514,0,0,1,54.729,75.694,39.144,39.144,0,0,1,39.4,78.79Zm0-73.866A34.471,34.471,0,1,0,73.866,39.4,34.51,34.51,0,0,0,39.4,4.924Z" transform="translate(0 0)"/><path class="b" d="M35.137.564a3.445,3.445,0,0,0-4.772,1L13.74,26.968,5.792,19.611a3.448,3.448,0,1,0-4.683,5.062L12.1,34.837c.039.034.089.044.128.079.1.079.158.187.261.261a2.776,2.776,0,0,0,.473.187,3.484,3.484,0,0,0,.566.227,3.259,3.259,0,0,0,.576.089,3.32,3.32,0,0,0,.827-.01c.113-.02.222-.049.335-.079a3.436,3.436,0,0,0,.965-.4c.054-.034.1-.074.153-.108a3.115,3.115,0,0,0,.591-.428,3.271,3.271,0,0,0,.276-.453s.015-.01.015-.015L36.131,5.34A3.453,3.453,0,0,0,35.137.564Z" transform="translate(21.514 23.162)"/></svg>