<svg xmlns="http://www.w3.org/2000/svg" width="67.605" height="67.605" viewBox="0 0 67.605 67.605"><defs><style>.a,.b{fill:#d12731;}.a{opacity:0.6;}</style></defs><g transform="translate(-142.311 -225)"><g transform="translate(142.311 225)"><path class="a" d="M33.8,67.605a33.645,33.645,0,0,1-18.9-5.773A33.9,33.9,0,0,1,2.657,46.96,33.756,33.756,0,0,1,5.773,14.9,33.9,33.9,0,0,1,20.646,2.657,33.755,33.755,0,0,1,52.7,5.773,33.9,33.9,0,0,1,64.949,20.646,33.756,33.756,0,0,1,61.832,52.7,33.9,33.9,0,0,1,46.96,64.949,33.587,33.587,0,0,1,33.8,67.605Zm0-63.38A29.578,29.578,0,1,0,63.38,33.8,29.611,29.611,0,0,0,33.8,4.225Z" transform="translate(0 0)"/></g><path class="b" d="M16.589,14.1,27.675,3.01A1.763,1.763,0,0,0,25.182.518L14.1,11.6,3.009.518A1.763,1.763,0,0,0,.517,3.01L11.6,14.1.517,25.182a1.763,1.763,0,1,0,2.493,2.492L14.1,16.589,25.182,27.674a1.763,1.763,0,1,0,2.493-2.493Z" transform="translate(161.943 245.989)"/></g></svg>