<svg xmlns="http://www.w3.org/2000/svg" xmlns:xlink="http://www.w3.org/1999/xlink" width="31.616" height="31.616" viewBox="0 0 31.616 31.616"><defs><style>.a{fill:rgba(0,0,0,0);}.b{fill:#b8bbc6;}.c{clip-path:url(#a);}</style><clipPath id="a"><path d="M18.4,19.995,14.57,16.166a9.043,9.043,0,1,1,1.6-1.6L19.995,18.4a1.13,1.13,0,0,1-1.6,1.6ZM2.258,9.033A6.775,6.775,0,1,0,9.033,2.258,6.783,6.783,0,0,0,2.258,9.033Z" transform="translate(0 0)"/></clipPath></defs><rect class="a" width="31.616" height="31.616"/><path class="b" d="M18.4,19.995,14.57,16.166a9.043,9.043,0,1,1,1.6-1.6L19.995,18.4a1.13,1.13,0,0,1-1.6,1.6ZM2.258,9.033A6.775,6.775,0,1,0,9.033,2.258,6.783,6.783,0,0,0,2.258,9.033Z" transform="translate(5.646 5.646)"/></svg>