<svg xmlns="http://www.w3.org/2000/svg" width="12.307" height="17.898" viewBox="0 0 12.307 17.898"><defs><style>.a{fill:#39141b;}</style></defs><g transform="translate(-79.968 0)"><path class="a" d="M91.42,3.065A6.074,6.074,0,0,0,86.259,0c-.092,0-.184,0-.275,0a6.074,6.074,0,0,0-5.161,3.064,6.231,6.231,0,0,0-.081,6.157l4.438,8.124.006.011a1.079,1.079,0,0,0,1.872,0l.006-.011L91.5,9.221a6.231,6.231,0,0,0-.081-6.157Zm-5.3,5.045a2.517,2.517,0,1,1,2.517-2.517A2.52,2.52,0,0,1,86.121,8.11Z" transform="translate(0 0)"/></g></svg>