<svg xmlns="http://www.w3.org/2000/svg" width="23.247" height="23.247" viewBox="0 0 23.247 23.247"><defs><style>.a{fill:rgba(0,0,0,0);}.b{fill:rgba(0,0,0,0.5);}</style></defs><rect class="a" width="23.247" height="23.247"/><path class="b" d="M11.036,18.265a1.132,1.132,0,0,1-.806-.333L6.9,14.6a1.141,1.141,0,0,0-1.613,0L1.949,17.932A1.142,1.142,0,0,1,0,17.125V1.9A1.9,1.9,0,0,1,1.9,0h8.373a1.9,1.9,0,0,1,1.9,1.9V17.125a1.141,1.141,0,0,1-1.142,1.14ZM6.088,12.852a2.539,2.539,0,0,1,1.805.748l2.872,2.872V1.9a.491.491,0,0,0-.491-.491H1.9a.491.491,0,0,0-.491.491v14.57L4.285,13.6A2.534,2.534,0,0,1,6.088,12.852Zm1.32-4.663a.333.333,0,0,1-.165-.044L6.061,7.427l-1.182.719a.333.333,0,0,1-.491-.353L4.7,6.381,3.684,5.54a.332.332,0,0,1,.173-.579l1.282-.137L5.765,3.5a.332.332,0,0,1,.593,0l.626,1.321,1.281.137a.332.332,0,0,1,.173.579l-1.018.841.315,1.412a.335.335,0,0,1-.132.334A.331.331,0,0,1,7.408,8.189Z" transform="translate(5.812 2.491)"/></svg>