<svg xmlns="http://www.w3.org/2000/svg" width="23.247" height="23.247" viewBox="0 0 23.247 23.247"><defs><style>.a{fill:rgba(0,0,0,0);}.b{fill:rgba(0,0,0,0.5);}</style></defs><rect class="a" width="23.247" height="23.247"/><path class="b" d="M6,18.266a6.007,6.007,0,0,1-6-6V6A6.007,6.007,0,0,1,6,0h4.6a6.007,6.007,0,0,1,6,6v6.265a6.007,6.007,0,0,1-6,6ZM1.423,5.837v6.592a4.505,4.505,0,0,0,4.5,4.5h4.759a4.505,4.505,0,0,0,4.5-4.5V5.837a4.505,4.505,0,0,0-4.5-4.5H5.923A4.505,4.505,0,0,0,1.423,5.837ZM4.072,12.7a1.036,1.036,0,0,1-.1-1.148A4.924,4.924,0,0,1,8.3,9.133a4.924,4.924,0,0,1,4.331,2.421,1.036,1.036,0,0,1-.1,1.148,5.535,5.535,0,0,1-8.462,0ZM6.054,5.846A2.248,2.248,0,1,1,8.3,8.095,2.248,2.248,0,0,1,6.054,5.846Z" transform="translate(3.321 2.491)"/></svg>