<svg xmlns="http://www.w3.org/2000/svg" width="21.374" height="20.316" viewBox="0 0 21.374 20.316"><defs><style>.a{fill:#271106;}</style></defs><g transform="translate(0 -12.675)"><g transform="translate(0 12.676)"><path class="a" d="M21.016,21.7,19.21,20.056V14.6a.629.629,0,0,0-.629-.629H14.235a.629.629,0,0,0-.629.629v.35l-2.181-1.987a1.091,1.091,0,0,0-1.476,0L.359,21.7A1.1,1.1,0,0,0,1.1,23.608H2.629v8.755a.629.629,0,0,0,.629.629H8.514a.629.629,0,0,0,.629-.629V27.047h3.089v5.316a.629.629,0,0,0,.629.629h5.256a.629.629,0,0,0,.629-.629V23.608h1.532a1.1,1.1,0,0,0,.738-1.906Zm-2.9.649a.629.629,0,0,0-.629.629v8.755h-4V26.419a.629.629,0,0,0-.629-.629H8.514a.629.629,0,0,0-.629.629v5.316h-4V22.979a.629.629,0,0,0-.629-.629H1.513l9.174-8.359,3.124,2.847a.629.629,0,0,0,1.052-.465V15.229h3.089v5.1a.629.629,0,0,0,.205.465l1.7,1.552Z" transform="translate(0 -12.675)"/></g></g></svg>